        <svg width="1050" height="175" viewBox="0 0 1050 175" fill="none" xmlns="http://www.w3.org/2000/svg">
<g clip-path="url(#clip0_437_11062)">
<g clip-path="url(#clip1_437_11062)">
<path d="M46.2573 102.425L52.4212 102.553C50.2968 101.818 48.2368 100.924 46.2573 99.8709V102.425ZM55.5434 101.579V102.425L52.4212 102.553C58.2954 104.548 63.6707 104.819 67.662 103.702C64.4593 103.734 60.291 103.287 55.5434 101.579ZM121.351 83.1901C123.91 83.1901 126.002 81.131 126.002 78.577C126.002 76.023 123.926 74.6662 121.351 74.6662C118.792 74.6662 116.7 76.039 116.7 78.577C116.7 81.115 118.776 83.1901 121.351 83.1901ZM116.684 102.425H126.002V84.7864H116.684V102.425ZM104.822 102.425H114.141V71.2502L104.822 75.608V102.425ZM99.8334 83.3657C96.9043 80.4606 91.7221 80.6362 91.7221 80.6362C91.7221 80.6362 86.5239 80.4606 83.6109 83.3657C80.6818 86.2709 80.9071 88.777 80.9071 91.762C80.9071 94.747 80.6818 97.2371 83.6109 100.142C86.54 103.047 91.7221 102.872 91.7221 102.872C91.7221 102.872 96.9204 103.047 99.8334 100.142C102.762 97.2371 102.537 94.747 102.537 91.762C102.521 88.761 102.746 86.2549 99.8334 83.3657ZM93.4281 94.8427C93.4281 95.4174 93.1384 96.838 91.706 96.838C90.2737 96.838 89.984 95.4174 89.984 94.8427V88.3939C89.984 87.0052 91.1589 86.654 91.706 86.654C92.2532 86.654 93.4281 86.9892 93.4281 88.3939V94.8427ZM76.3365 83.3657C73.4075 80.4606 68.2253 80.6362 68.2253 80.6362C68.2253 80.6362 63.0431 80.4606 60.114 83.3657C59.8082 83.669 59.5186 83.9883 59.2611 84.3235C53.1132 79.5986 47.5931 76.9009 42.8293 74.5704V71.2662L39.2082 72.9582C30.4532 69.4305 24.8848 70.0531 23.549 72.9742C23.549 72.9742 19.5417 78.2099 33.495 90.6606V102.425H42.8132V97.8596C41.7671 97.1892 40.7211 96.4709 39.6911 95.6887C37.3092 93.9009 35.2814 92.2409 33.5111 90.6765V85.7282C35.6193 88.0747 38.4196 90.7404 42.1051 93.7573L42.8293 94.3319V89.5751C42.8293 88.4737 43.1029 86.67 44.5675 86.67C46.032 86.67 46.2734 87.7714 46.2734 89.0643V96.838C49.1703 98.7855 52.2764 100.366 55.5595 101.563V86.5742C55.5595 83.5892 53.4029 80.6042 49.0254 80.6042C46.4826 80.5883 44.1168 81.9132 42.8293 84.1V75.4324C49.5726 78.7685 56.332 82.8549 58.907 84.7385C57.2654 87.069 57.4103 89.2239 57.4103 91.7141C57.4103 94.6991 57.185 97.1892 60.114 100.094C63.0431 103 68.2253 102.824 68.2253 102.824C68.2253 102.824 73.4235 103 76.3365 100.094C79.2656 97.1892 79.0242 94.6991 79.0242 91.7141C79.0242 88.761 79.2656 86.2549 76.3365 83.3657ZM33.495 75.608V85.7122C25.6573 77.0127 27.2345 73.5808 27.83 73.0859C30.0026 71.2662 33.8651 71.8089 38.1943 73.4211L33.495 75.608ZM69.9473 94.8427C69.9473 95.4174 69.6576 96.838 68.2253 96.838C66.7929 96.838 66.5032 95.4174 66.5032 94.8427V88.3939C66.5032 87.0052 67.6781 86.654 68.2253 86.654C68.7725 86.654 69.9473 86.9892 69.9473 88.3939V94.8427Z" fill="#5E85ED"/>
</g>
</g>
<g clip-path="url(#clip2_437_11062)">
<path d="M212.5 58.9952H225.112V93.0099C225.112 98.4046 227.544 101.615 229.521 102.952C227.463 104.761 221.221 106.358 216.52 102.496C213.764 100.214 212.5 96.4162 212.5 92.8795V58.9952ZM291.269 87.2729V83.6872H295.127V71.1701H290.896C289.259 63.624 282.596 58.0173 274.637 58.0173C265.461 58.0173 257.988 65.5146 257.988 74.7557V103.962C260.582 104.337 263.727 103.913 266.369 101.681C269.141 99.3988 270.389 95.6176 270.389 92.0646V90.9726H276.679V78.4555H270.389V74.6579C270.389 69.0187 278.851 69.0187 278.851 74.6579V87.224C278.851 96.4488 286.308 103.962 295.5 103.962V91.4941C293.149 91.4941 291.269 89.5872 291.269 87.2729ZM243.56 71.1375V89.5546C243.56 92.0646 239.702 92.0646 239.702 89.5546V71.1375H227.252V92.7654C227.252 96.6444 228.549 101.567 234.547 103.18C240.545 104.777 243.982 101.452 243.982 101.452C243.641 103.636 241.631 105.25 238.324 105.576C235.811 105.837 232.618 104.989 231.029 104.305V115.762C235.098 116.985 239.378 117.36 243.609 116.528C251.244 115.045 256.059 108.64 256.059 100.1V71.056H243.56V71.1375Z" fill="#5E85ED"/>
</g>
<g clip-path="url(#clip3_437_11062)">
<path d="M484 50.1458C471.122 58.8283 469.752 65.1296 468.636 67.0572C467.568 69.0334 466.772 76.825 464.923 80.5993C463.058 84.4222 456.285 87.4352 454.388 88.6987C452.523 89.9622 449.878 94.8704 447.71 99.0982C430.482 98.3855 421.031 105.383 406.4 114.26C411.086 112.689 413.301 111.555 413.301 111.555C428.314 105.724 435.502 100.491 458.102 103.585C458.277 103.585 458.404 103.682 458.548 103.715C459.169 104.071 459.392 104.833 459.042 105.464L450.452 120.983C450.053 121.744 449.208 122.149 448.364 121.971C428.155 118.116 412.202 124.773 397.539 124.984C385.841 125.162 382 119.557 382 119.298C382 119.12 382.096 119.023 382.271 119.023C382.271 119.023 388.375 119.023 398.702 116.544C410.432 93.8175 420.887 85.8639 432.267 85.8639C432.267 85.8639 443.694 85.8639 446.706 95.8909C450.34 89.46 451.217 87.9211 451.217 87.9211C452.061 86.3985 456.795 75.4157 464.987 65.0162C473.194 54.649 479.394 52.0734 484 50.1458Z" fill="#5E85ED"/>
</g>
<g clip-path="url(#clip4_437_11062)">
<g clip-path="url(#clip5_437_11062)">
<path d="M589.554 69.7932L582.586 71.2568L582.553 93.9114C582.553 98.0955 585.74 100.8 589.973 100.8C592.322 100.8 594.044 100.37 594.994 99.8614V94.4841C594.077 94.85 589.57 96.1546 589.57 91.9864V81.9318H594.994V75.9182H589.57L589.554 69.7932ZM603.894 78.0023L603.459 75.9182H597.279V100.291H604.409V83.8886C606.099 81.6932 608.947 82.1227 609.865 82.4091V75.9182C608.899 75.5841 605.568 74.9636 603.894 78.0023ZM618.748 66.5L611.57 68.0114V73.7705L618.748 72.2591V66.5ZM570.226 83.0932C570.226 81.9955 571.159 81.5659 572.656 81.55C574.828 81.55 577.597 82.2023 579.769 83.3636V76.7136C577.403 75.7909 575.038 75.425 572.672 75.425C566.878 75.425 563.016 78.4159 563.016 83.4114C563.016 91.2386 573.879 89.9659 573.879 93.3386C573.879 94.6432 572.736 95.0727 571.143 95.0727C568.777 95.0727 565.719 94.1023 563.321 92.8136V99.1773C565.977 100.307 568.665 100.784 571.127 100.784C577.065 100.784 581.153 98.2705 581.153 93.1796C581.153 84.7636 570.226 86.275 570.226 83.0932ZM666 88.3909C666 81.1523 662.459 75.4409 655.667 75.4409C648.876 75.4409 644.74 81.1523 644.74 88.3432C644.74 96.8545 649.616 100.784 656.569 100.784C659.98 100.784 662.539 100.02 664.487 98.9545V93.6409C662.539 94.6114 660.302 95.2 657.47 95.2C654.686 95.2 652.239 94.2295 651.918 90.9205H665.903C665.935 90.5545 666 89.075 666 88.3909ZM651.853 85.7182C651.853 82.5364 653.833 81.2 655.619 81.2C657.373 81.2 659.24 82.5364 659.24 85.7182H651.853ZM633.683 75.4409C630.883 75.4409 629.08 76.7455 628.083 77.6523L627.713 75.9023H621.42V108.484L628.565 106.989L628.582 99.0023C629.612 99.75 631.14 100.784 633.635 100.784C638.753 100.784 643.42 97.0932 643.42 88.1205C643.436 79.9114 638.705 75.4409 633.683 75.4409ZM631.977 94.9296C630.304 94.9296 629.306 94.325 628.614 93.5932L628.565 83.0932C629.306 82.2818 630.336 81.6932 631.977 81.6932C634.585 81.6932 636.387 84.5886 636.387 88.2795C636.403 92.0818 634.633 94.9296 631.977 94.9296ZM611.587 100.291H618.764V75.9182H611.587V100.291Z" fill="#5E85ED"/>
</g>
</g>
<g clip-path="url(#clip6_437_11062)">
<g clip-path="url(#clip7_437_11062)">
<path d="M772.886 78.9887C772.769 82.6268 774.603 84.2378 774.648 85.261C774.627 85.4692 774.555 85.6693 774.44 85.8445C774.324 86.0197 774.168 86.165 773.984 86.2681L771.911 87.7072C771.642 87.8938 771.326 88.0007 770.999 88.0156C770.929 88.0124 769.672 88.3096 767.681 83.9021C766.466 85.4055 764.921 86.6133 763.163 87.4332C761.405 88.2531 759.481 88.6633 757.538 88.6324C754.901 88.7754 747.754 87.1483 748.122 79.6039C747.864 73.4553 753.639 69.6357 759.612 69.9585C760.762 69.9618 763.111 70.018 767.224 70.9656V68.4567C767.66 64.2067 764.843 60.9091 759.965 61.4038C759.576 61.4054 756.822 61.3235 752.539 63.0277C751.347 63.5706 751.195 63.4807 750.798 63.4807C749.598 63.4807 750.092 60.0305 750.322 59.5936C751.166 58.5656 756.131 56.6462 761.004 56.6735C764.262 56.3878 767.502 57.3848 770.025 59.4491C771.05 60.5864 771.833 61.918 772.325 63.3635C772.817 64.809 773.008 66.3383 772.887 67.8592L772.886 78.9887ZM758.886 84.1912C764.14 84.1157 766.364 80.9836 766.871 79.2971C767.269 77.6828 767.203 76.6613 767.203 74.8961C765.637 74.5234 763.382 74.117 760.795 74.1138C758.34 73.9307 753.858 75.0181 754.033 79.2955C753.832 81.9923 755.834 84.339 758.886 84.1912ZM786.574 87.8936C785.301 88.0092 784.708 87.1129 784.52 86.2279L776.453 59.7815C776.296 59.335 776.192 58.874 776.142 58.4034C776.112 58.2094 776.161 58.0116 776.278 57.8535C776.396 57.6953 776.571 57.5898 776.767 57.5601C776.806 57.5537 776.422 57.5601 780.372 57.5601C781.794 57.4188 782.257 58.5287 782.405 59.2258L788.191 81.8462L793.563 59.2258C793.649 58.7086 794.039 57.4477 795.636 57.581H798.416C798.768 57.5521 800.216 57.5007 800.47 59.2467L805.884 82.1562L811.857 59.2467C811.934 58.8965 812.297 57.4204 813.911 57.581H817.105C817.243 57.5601 818.101 57.4509 817.956 58.9592C817.886 59.2563 818.508 57.2469 809.411 86.2488C809.224 87.1338 808.63 88.0301 807.356 87.9144H804.329C802.557 88.0992 802.302 86.3628 802.275 86.1878L796.903 64.1617L791.593 86.1653C791.567 86.3404 791.313 88.0767 789.539 87.892H786.574V87.8936ZM830.876 88.7979C829.924 88.7995 825.381 88.7497 821.584 86.8238C821.206 86.665 820.884 86.3984 820.659 86.0579C820.433 85.7173 820.315 85.3181 820.319 84.9108V83.1841C820.319 81.8269 821.324 82.0758 821.75 82.2381C823.376 82.8902 824.419 83.3849 826.417 83.78C832.354 84.9895 834.965 83.4106 835.605 83.0605C837.735 81.806 837.904 78.9357 836.455 77.4467C834.758 76.0349 833.948 75.9819 827.849 74.0737C827.097 73.8665 820.77 71.8876 820.755 65.6635C820.656 61.1276 824.813 56.6398 832.017 56.6767C834.069 56.6751 839.538 57.3401 841.019 59.1856C841.237 59.5213 841.346 59.9165 841.33 60.3164V61.9403C841.33 62.6535 841.067 63.01 840.541 63.01C839.292 62.8719 837.076 61.2159 832.577 61.2834C831.461 61.2255 826.115 61.4295 826.355 65.2941C826.285 68.3395 830.666 69.4815 831.166 69.6132C837.073 71.3752 839.047 71.6676 841.391 74.3644C844.168 77.9382 842.671 82.1224 842.096 83.2693C839.005 89.291 831.012 88.8011 830.876 88.7979ZM837.388 105.641C826.044 113.948 809.576 118.37 795.515 118.37C776.542 118.494 758.209 111.577 744.119 98.9781C743.061 98.032 743.994 96.7358 745.28 97.457C760.91 106.322 778.607 110.98 796.613 110.968C810.06 110.897 823.36 108.192 835.749 103.01C837.657 102.207 839.276 104.263 837.388 105.641ZM842.117 100.294C840.666 98.4432 832.514 99.4294 828.864 99.8615C827.764 99.9852 827.578 99.0391 828.574 98.3404C835.065 93.8157 845.726 95.1119 846.951 96.633C848.174 98.1541 846.619 108.745 840.542 113.805C839.609 114.587 838.717 114.175 839.132 113.147C840.499 109.733 843.569 102.146 842.117 100.294Z" fill="#5E85ED"/>
</g>
</g>
<g clip-path="url(#clip8_437_11062)">
<g clip-path="url(#clip9_437_11062)">
<path d="M1005.93 79.1614C1003.53 79.1614 1001.42 80.1556 999.876 81.7111C994.176 77.7503 986.496 75.2006 977.986 74.928L982.408 54.9156L996.491 58.0906C996.491 61.5543 999.301 64.3766 1002.75 64.3766C1006.26 64.3766 1009.09 61.4741 1009.09 58.0104C1009.09 54.5467 1006.28 51.6443 1002.75 51.6443C1000.29 51.6443 998.167 53.1356 997.113 55.1721L981.562 51.7084C980.78 51.5 980.013 52.0612 979.806 52.847L974.952 74.912C966.506 75.2648 958.906 77.8144 953.19 81.7752C951.641 80.1556 949.454 79.1614 947.059 79.1614C938.182 79.1614 935.276 91.124 943.403 95.2131C943.115 96.4799 942.987 97.8269 942.987 99.1739C942.987 112.612 958.06 123.5 976.565 123.5C995.15 123.5 1010.22 112.612 1010.22 99.1739C1010.22 97.8269 1010.08 96.4158 1009.73 95.149C1017.69 91.0438 1014.76 79.1614 1005.93 79.1614ZM956.287 96.063C956.287 92.5351 959.098 89.6968 962.626 89.6968C966.075 89.6968 968.885 92.5191 968.885 96.063C968.885 99.5267 966.075 102.349 962.626 102.349C959.114 102.365 956.287 99.5267 956.287 96.063ZM990.503 111.056C984.692 116.893 968.294 116.893 962.482 111.056C961.844 110.495 961.844 109.501 962.482 108.859C963.041 108.298 964.031 108.298 964.59 108.859C969.029 113.43 983.75 113.51 988.38 108.859C988.939 108.298 989.929 108.298 990.487 108.859C991.142 109.501 991.142 110.495 990.503 111.056ZM990.376 102.365C986.927 102.365 984.117 99.5427 984.117 96.079C984.117 92.5512 986.927 89.7129 990.376 89.7129C993.888 89.7129 996.714 92.5351 996.714 96.079C996.698 99.5267 993.888 102.365 990.376 102.365Z" fill="#5E85ED"/>
</g>
</g>
<defs>
<clipPath id="clip0_437_11062">
<rect width="153" height="34" fill="white" transform="translate(-2 70.5)"/>
</clipPath>
<clipPath id="clip1_437_11062">
<rect width="103" height="34" fill="white" transform="translate(23 70.5)"/>
</clipPath>
<clipPath id="clip2_437_11062">
<rect width="83" height="59" fill="white" transform="translate(212.5 58)"/>
</clipPath>
<clipPath id="clip3_437_11062">
<rect width="102" height="75" fill="white" transform="translate(382 50)"/>
</clipPath>
<clipPath id="clip4_437_11062">
<rect width="151" height="42" fill="white" transform="translate(539 66.5)"/>
</clipPath>
<clipPath id="clip5_437_11062">
<rect width="103" height="42" fill="white" transform="translate(563 66.5)"/>
</clipPath>
<clipPath id="clip6_437_11062">
<rect width="151" height="62" fill="white" transform="translate(720 56.5)"/>
</clipPath>
<clipPath id="clip7_437_11062">
<rect width="104" height="62" fill="white" transform="translate(743.5 56.5)"/>
</clipPath>
<clipPath id="clip8_437_11062">
<rect width="151" height="72" fill="white" transform="translate(901 51.5)"/>
</clipPath>
<clipPath id="clip9_437_11062">
<rect width="76" height="72" fill="white" transform="translate(938.5 51.5)"/>
</clipPath>
</defs>
</svg>
